<svg xmlns="http://www.w3.org/2000/svg" viewBox="0 0 200 200"><rect width="200" height="200" fill="#eaf6fd"/>
<rect x="30" y="75" width="140" height="60" rx="10" fill="#fff" stroke="#16222e" stroke-width="3"/>
<g fill="#3DB7F2">
<rect x="42" y="86" width="14" height="12" rx="2"/><rect x="60" y="86" width="14" height="12" rx="2"/>
<rect x="78" y="86" width="14" height="12" rx="2"/><rect x="96" y="86" width="14" height="12" rx="2"/>
<rect x="114" y="86" width="14" height="12" rx="2"/><rect x="132" y="86" width="14" height="12" rx="2"/>
</g>
<g fill="#FF9A3C">
<rect x="42" y="103" width="14" height="12" rx="2"/><rect x="60" y="103" width="14" height="12" rx="2"/>
<rect x="78" y="103" width="14" height="12" rx="2"/><rect x="96" y="103" width="14" height="12" rx="2"/>
<rect x="114" y="103" width="14" height="12" rx="2"/><rect x="132" y="103" width="14" height="12" rx="2"/>
</g>
<rect x="60" y="120" width="80" height="10" rx="3" fill="#16222e"/>
</svg>
