<svg xmlns="http://www.w3.org/2000/svg" viewBox="0 0 200 200"><rect width="200" height="200" fill="#eaf6fd"/>
<path d="M40 95c0-18 14-28 30-28h60c16 0 30 10 30 28l8 45c2 12-8 22-19 18l-14-5a30 30 0 0 0-20-1l-10 3a40 40 0 0 1-30 0l-10-3a30 30 0 0 0-20 1l-14 5c-11 4-21-6-19-18l8-45z" fill="#3DB7F2" stroke="#16222e" stroke-width="3"/>
<circle cx="70" cy="95" r="9" fill="#fff"/>
<rect x="66" y="91" width="8" height="8" fill="#16222e"/>
<rect x="66" y="91" width="8" height="8" fill="#16222e" transform="rotate(90 70 95)"/>
<circle cx="138" cy="88" r="7" fill="#FF9A3C"/>
<circle cx="152" cy="102" r="7" fill="#FF9A3C"/>
<circle cx="124" cy="102" r="7" fill="#fff" stroke="#16222e" stroke-width="2"/>
<circle cx="138" cy="116" r="7" fill="#fff" stroke="#16222e" stroke-width="2"/>
</svg>
